/* XPM */
static char *_05ff28fd46c4bd9b44936f0dc25085d[] = {
/* columns rows colors chars-per-pixel */
"64 64 104 2 ",
"   c #091B32",
".  c #0F233C",
"X  c #14253C",
"o  c #16283E",
"O  c #19293E",
"+  c #112641",
"@  c #152942",
"#  c #1B2D44",
"$  c #1B2F48",
"%  c #1E3047",
"&  c #1D314A",
"*  c #202F42",
"=  c #243345",
"-  c #22354D",
";  c #293749",
":  c #27384C",
">  c #28384C",
",  c #243750",
"<  c #263952",
"1  c #283B53",
"2  c #303F52",
"3  c #2E4057",
"4  c #2E4259",
"5  c #334255",
"6  c #384556",
"7  c #30445B",
"8  c #3C4A5C",
"9  c #3C4D61",
"0  c #434E5D",
"q  c #44505F",
"w  c #404E61",
"e  c #435265",
"r  c #4A5564",
"t  c #4E5967",
"y  c #455568",
"u  c #4A5768",
"i  c #4B5A6C",
"p  c #515D6C",
"a  c #4F5E71",
"s  c #505F73",
"d  c #546273",
"f  c #596472",
"g  c #5E6976",
"h  c #5C6A7B",
"j  c #646E7A",
"k  c #66707D",
"l  c #69727D",
"z  c #657283",
"x  c #6C7682",
"c  c #6E7987",
"v  c #6F7B8A",
"b  c #727B85",
"n  c #737D8A",
"m  c #77808C",
"M  c #7C838E",
"N  c #748090",
"B  c #7C8693",
"V  c #828A95",
"C  c #838E9B",
"Z  c #8D949D",
"A  c #8D96A1",
"S  c #8F99A5",
"D  c #949BA5",
"F  c #999FA7",
"G  c #979EA8",
"H  c #989FA8",
"J  c #9CA3AC",
"K  c #A1A7AF",
"L  c #A2A8AF",
"P  c #A4AAB2",
"I  c #AAAFB6",
"U  c #A7AFB9",
"Y  c #ABB2BB",
"T  c #B1B5BC",
"R  c #B3B9BF",
"E  c #B0B7C0",
"W  c #B5BAC1",
"Q  c #B9BDC3",
"!  c #BDC1C6",
"~  c #BEC3C9",
"^  c #C0C3C7",
"/  c #C2C5CA",
"(  c #C6C9CD",
")  c #C6CAD1",
"_  c #CACDD2",
"`  c #CED2D6",
"'  c #CFD3D8",
"]  c #D1D4D7",
"[  c #D4D6D9",
"{  c #D6D9DD",
"}  c #DADCDE",
"|  c #D9DCE0",
" . c #DEE1E4",
".. c #E1E3E6",
"X. c #E5E7E8",
"o. c #E7E9EB",
"O. c #EAEBEC",
"+. c #EDEEF0",
"@. c #EEF0F2",
"#. c #F2F3F4",
"$. c #F6F7F8",
"%. c #F7F8F9",
"&. c #FFFFFF",
"*. c None",
/* pixels */
"*.*.*.*.*.*.*.*.*.*.1 4 7 7 7 7 7 7 7 7 7 7 7 7 7 7 7 7 7 7 7 7 7 7 7 7 7 7 7 7 4 7 7 7 7 7 7 7 7 7 7 4 4 3 *.*.*.*.*.*.*.*.*.*.",
"*.*.*.*.*.*.*.*.4 7 7 7 7 7 7 7 7 7 7 7 7 7 7 7 7 4 7 7 7 7 7 7 7 7 7 7 7 7 7 7 7 7 7 7 7 7 7 4 7 7 7 7 7 7 7 4 *.*.*.*.*.*.*.*.",
"*.*.*.*.*.*.4 4 4 7 7 7 7 7 7 7 7 7 7 7 7 7 7 7 7 7 7 7 7 7 7 7 7 7 7 7 7 7 7 7 7 7 7 7 7 7 7 7 7 7 7 7 7 7 7 7 4 4 *.*.*.*.*.*.",
"*.*.*.*.*.1 4 7 7 7 7 7 7 7 7 7 7 7 7 7 7 7 7 7 7 7 7 7 7 7 7 7 7 7 7 7 7 7 7 7 7 7 7 7 7 7 7 7 7 7 7 7 7 7 7 7 7 4 1 *.*.*.*.*.",
"*.*.*.*.7 7 7 7 7 7 7 7 7 7 7 7 7 7 7 7 7 7 7 7 7 7 7 7 7 7 7 7 7 7 7 7 7 7 7 7 7 7 7 7 7 7 7 7 7 7 7 7 7 7 7 7 7 7 4 7 *.*.*.*.",
"*.*.*.1 7 7 7 7 7 7 7 7 7 7 7 4 7 4 4 4 4 4 4 4 7 4 4 4 7 4 4 4 7 4 4 4 4 4 4 7 4 4 4 7 4 7 4 4 4 7 7 7 7 7 7 7 7 7 7 7 1 *.*.*.",
"*.*.7 4 7 7 7 7 7 7 7 4 4 1 1 1 1 1 1 1 1 1 1 1 1 1 1 1 1 1 1 1 1 1 1 1 1 1 1 1 1 1 1 1 1 1 1 1 1 1 3 3 3 7 7 7 7 7 7 7 7 7 *.*.",
"*.*.4 7 7 7 7 7 7 3 1 1 1 1 1 1 1 1 1 1 1 1 1 1 1 1 1 1 1 1 1 1 1 1 1 1 1 1 1 1 1 1 1 1 1 1 1 1 1 1 1 1 1 1 3 7 7 7 7 7 7 7 *.*.",
"*.4 7 7 7 7 7 1 1 1 1 1 1 1 1 1 < 1 1 1 1 1 1 1 1 1 1 1 1 1 1 1 1 1 1 1 1 1 1 1 1 1 1 1 1 1 1 1 1 1 1 1 1 1 1 1 4 7 7 7 7 7 4 *.",
"*.7 7 7 7 7 3 1 1 1 1 1 1 1 1 1 1 1 1 1 1 1 1 1 1 1 1 1 1 1 1 1 1 1 1 1 1 1 1 1 1 1 1 1 1 < 1 1 1 1 1 1 1 1 1 1 1 1 7 7 7 7 7 *.",
"3 7 7 7 7 1 1 1 1 1 1 1 1 1 1 1 1 1 1 1 1 1 1 1 1 1 < 1 1 1 1 1 1 1 1 1 1 1 1 1 1 1 1 1 1 1 1 1 1 1 1 1 1 1 1 1 1 1 1 7 7 7 7 1 ",
"4 7 7 7 1 1 1 1 1 1 1 1 1 1 1 1 1 1 1 1 1 1 1 1 1 1 1 1 1 1 1 1 1 < 1 1 1 1 1 < 1 1 1 1 1 1 1 1 1 1 1 1 1 1 1 1 1 1 1 4 7 7 7 7 ",
"4 7 7 1 1 1 1 1 1 1 1 1 1 1 1 1 1 1 1 1 1 1 < 1 1 1 1 1 1 1 1 1 1 1 1 1 1 1 1 1 1 1 1 1 1 1 1 1 1 1 1 1 1 1 1 1 1 1 1 1 1 7 7 7 ",
"7 7 4 1 1 1 1 1 1 1 1 1 1 1 1 1 1 1 1 1 1 1 1 1 1 1 1 1 1 1 1 1 1 1 1 1 1 1 1 1 1 1 1 1 1 1 1 1 1 1 1 1 1 1 1 1 1 1 1 1 1 7 7 7 ",
"7 4 1 1 1 1 1 1 1 1 1 1 1 1 1 1 1 1 1 1 1 1 1 1 1 1 1 1 1 1 1 1 1 1 1 1 1 1 1 1 < 1 1 1 1 1 1 1 1 1 1 1 1 1 1 1 1 1 1 1 1 1 7 7 ",
"7 3 1 1 1 1 1 1 1 1 1 1 1 1 1 1 1 1 1 1 1 1 1 1 1 1 1 1 1 1 1 1 1 1 1 1 1 1 1 1 1 1 1 1 1 1 1 1 1 1 1 1 1 1 1 1 1 1 1 1 1 1 1 7 ",
"7 1 1 1 1 1 1 1 1 1 1 1 1 1 1 1 1 1 1 1 1 1 1 1 1 1 1 1 1 1 < 1 1 1 1 1 1 1 1 1 1 1 1 1 1 1 1 1 1 1 1 1 < 1 1 1 1 1 1 1 1 1 1 7 ",
"3 1 1 1 1 1 1 1 1 1 1 1 1 1 1 1 1 1 1 1 1 1 1 1 1 1 1 1 1 1 1 1 1 1 1 1 1 1 1 1 1 1 1 1 1 1 1 1 1 1 1 1 1 1 1 1 1 1 1 < < 1 1 4 ",
"1 1 1 1 1 1 1 1 1 1 1 1 1 1 1 1 1 1 1 1 1 1 1 1 1 1 1 1 1 1 1 1 1 1 1 1 1 1 1 1 < 1 1 1 1 1 1 1 1 1 1 1 < < < & & $ % : 2 < 1 1 ",
"1 1 1 1 1 1 1 1 1 1 1 1 1 1 1 1 < 1 1 1 1 1 1 1 1 1 1 1 1 1 1 1 1 1 1 1 1 1 1 1 1 1 1 1 1 1 1 : & & $ $ - 4 9 f v S Y _ B # 1 1 ",
"< 1 1 1 1 1 1 1 1 1 1 1 1 1 1 1 1 1 1 1 1 1 1 1 < 1 1 1 1 1 1 1 1 1 1 1 < 1 1 , , & & & 1 1 2 y z B H E _ X.#.&.&.&.&.%.6 : 1 1 ",
"1 1 1 1 1 1 1 1 1 1 1 1 1 1 1 1 1 1 1 1 1 1 1 1 1 1 1 1 1 1 1 1 , - - , - & - 7 9 h N C - < 1 d S ~ O.&.&.&.&.&.&.&.&.Z o 1 1 < ",
"1 1 1 1 1 1 1 1 1 1 1 1 1 1 1 1 1 1 1 1 1 1 1 < 1 : - & & $ & - 7 e y 0 b W _ o.$.&.&.{ O - $ @ @ $ 1 e B &.&.&.&.&.o.> - 1 1 1 ",
"1 1 1 1 1 1 1 1 1 1 1 1 1 1 1 1 1 1 1 - & $ % % < 7 y h B D Q _ o.$.%.[ p j %.&.&.&.&.P X Y I m i 2 & @ S &.&.&.&.&.V @ 1 1 1 1 ",
"1 1 1 1 1 1 1 1 1 1 1 1 1 1 1 1 1 < 1 s x A K ~ ' +.%.&.&.&.&.&.&.&.&.&.J 5 %.&.&.&.&.b i &.&.&.&.X.T 8 @.&.&.&.&...= : 1 1 1 1 ",
"1 1 1 1 1 1 < < , & , 1 1 1 1 1 1 < 2 d Z ! o.&.&.&.&.&.&.&.&.&.&.&.&.&.W p &.&.&.&.&.p W &.&.&.&.&._ D &.&.&.&.&.b # 1 1 1 1 1 ",
"1 , & $ & & < 7 y p 9 % , 1 1 1 1 1 1 $ + $ 1 e x H / o.&.&.&.&.&.&.&.&.J b &.&.&.&.+.x %.&.&.&.&.&.W o.&.&.&.&.{ # : 1 1 1 1 1 ",
"1 i v C J Q ] O.%.&.#.P = - 1 1 1 1 < d d 5 % @ + @ - 7 i K &.&.&.&.&.&.M S &.&.&.&.{ ~ &.&.&.&.&.&.o.&.&.&.&.&.k # 1 1 1 1 1 1 ",
"< s J | &.&.&.&.&.&.&.&.! = : 1 1 1 - ) &.o./ G z 8 - < @ d &.&.&.&.&.&.g R &.&.&.&.+.%.&.&.&.&.&.&.&.&.&.&.&._ # < 1 1 1 1 1 1 ",
"1 - $ , i B ~ $.&.&.&.&.&.Z . 1 1 1 1  .&.&.&.&.&.P o 1 & n &.&.&.&.&.&.t [ &.&.&.&.&.&.&.&.&.&.&.&.&.&.&.&.&.f # 1 1 1 1 1 1 1 ",
"1 1 1 1 - $ - | &.&.&.&.&.I l o 1 , e $.&.&.&.&.&.V o < @ P &.&.&.&.&.o.r #.&.&.&.&.&.&.&.&.&.&.&.&.&.&.&.&.^ o 1 1 1 1 1 1 1 1 ",
"1 1 1 1 1 < 9 +.&.&.&.&.&.G $.j @ - h &.&.&.&.&.&.f # 3 h +.&.&.&.&.&._ i &.&.&.&.&.&.&.&.&.&.&.&.&.&.&.&.&.t % 1 1 1 1 1 1 1 1 ",
"1 1 1 1 1 & d &.&.&.&.&.@.G &.@.0 . C &.&.&.&.&.@.V ] o.&.&.&.&.&.&.&.Z k &.&.&.&.&.&.&.&.$.&.&.&.&.&.&.&.R X 1 1 1 1 1 1 1 1 1 ",
"1 1 1 1 1 & v &.&.&.&.&. .K &.&.} # J &.&.&.&.&.{ P &.&.&.&.&.&.&.&.X.> G &.&.&.&.&.&.&.' ] &.&.&.&.&.&.%.0 = 1 1 1 1 1 1 1 1 1 ",
"1 1 1 1 1 $ S &.&.&.&.&.( R &.&.&.W ( &.&.&.&.&.^ ! &.&.&.&.@.} ^ Z 6 @ ~ &.&.&.&.&.&.&.x } &.&.&.&.&.&.P X 1 1 1 1 1 1 1 1 1 1 ",
"1 1 1 1 1 & E &.&.&.&.&.T _ &.&.&.&.&.&.&.&.&.&.P G L V k t 5 1 % $ - 1 | &.&.&.&.&.&./ 6 %.&.&.&.&.&.@.5 - 1 1 1 1 < 1 1 1 1 1 ",
"1 1 1 1 1 < ' &.&.&.&.&.J  .&.&.&.&.&.&.&.&.&.&.M X $ $ & & < 1 1 1 , 9 @.&.&.&.&.&.&.0 i &.&.&.&.&.&.x o 1 1 1 1 1 1 1 1 < 1 1 ",
"1 1 1 1 < 7 o.&.&.&.&.&.J %.&.&.&.&.&.&.&.&.&.&.f % 1 < 1 1 1 1 1 1 & d &.&.&.&.&.&.F   B &.&.&.$.} M # 1 1 1 1 1 1 1 1 1 1 1 1 ",
"1 1 1 1 - i %.&.&.&.&.&.k ..&.&.&.&.&.&.&.&.&.%.8 - 1 1 1 1 1 1 1 1 & n &.&.&.&.&.! = & z J n f w : & 1 1 1 1 1 1 1 1 1 1 1 1 1 ",
"1 1 1 1 & z &.&.&.&.&.@.> y o.&.&.&.&.&.&.&.&...= < 1 1 1 1 1 1 1 1 & C [ Q H M p - - 1 - $ % & - < 1 1 1 1 1 1 1 1 1 1 1 1 1 1 ",
"1 1 1 1 $ C &.&.&.&.&.{ = $ i o.&.&.&.&.&.&.&.R o 1 1 1 1 1 1 1 1 1 1 4 : $ $ $ & 1 1 1 1 1 1 1 1 1 1 1 1 1 1 1 1 < 1 1 1 1 1 1 ",
"1 1 1 1 & U &.&.&.&.&.Q o 1 & i o.&.&.&.&.O./ 0 = 1 1 1 1 1 1 1 1 1 1 1 < 1 < 1 1 1 1 1 < 1 1 1 1 1 1 1 1 1 1 1 1 1 1 1 1 1 1 1 ",
"1 1 1 < - ) &.&.&.&.&.F o 1 1 & s J V j u 5 - - 1 1 1 1 1 1 1 1 1 1 1 1 1 1 1 1 1 1 1 1 1 1 1 1 1 < 1 1 1 1 1 1 1 1 1 1 1 1 1 1 ",
"1 1 1 < 4  .&.&.&.&.&.n # 1 1 1 - $ $ & - < < < 1 1 1 1 1 1 1 1 1 1 1 1 < 1 1 1 1 1 1 1 1 1 1 1 1 1 1 1 1 1 1 1 1 1 1 1 1 1 1 1 ",
"1 1 1 , e $.&.&.&.&.X.0 - 1 1 1 1 1 1 1 1 1 1 1 < 1 1 1 1 1 1 1 1 1 1 1 1 1 1 1 1 1 1 1 1 1 1 1 1 1 1 1 1 1 1 1 1 1 1 1 1 1 1 < ",
"1 1 1 & h &.&.&.%.F 2 - 1 < 1 1 1 1 1 1 1 1 < 1 1 1 1 1 1 1 1 1 1 1 1 1 1 1 1 1 1 1 1 1 1 1 1 1 1 1 1 1 < 1 1 1 1 1 1 1 1 1 1 1 ",
"1 1 1 & B &.&.~ r # < 1 1 1 1 1 1 1 1 1 1 1 1 1 1 1 1 1 1 1 1 1 1 1 1 1 1 1 1 1 1 1 1 1 1 1 1 1 1 1 1 1 1 1 1 1 1 1 1 1 1 1 1 1 ",
"1 1 < $ U o.x # & 1 < 1 1 1 1 1 1 1 1 1 1 1 1 1 1 1 1 1 1 1 1 1 1 1 1 1 1 1 1 1 1 1 1 1 1 1 1 1 1 1 1 1 1 1 1 1 1 1 1 1 1 1 1 1 ",
"1 1 1 < z 6 $ < 1 1 1 1 1 1 1 1 1 1 1 1 1 1 1 1 1 1 1 1 1 1 1 1 1 < 1 1 1 1 1 1 1 1 1 1 1 1 1 1 1 1 1 1 1 1 1 1 1 1 1 1 1 1 1 1 ",
"1 1 1 1 & < 1 1 1 1 1 1 1 1 1 1 1 1 1 1 1 1 1 1 1 1 1 1 < 1 1 1 1 1 1 1 1 1 1 1 : 1 1 1 1 1 1 1 1 1 1 1 1 1 1 1 1 1 1 1 1 1 1 1 ",
"1 1 1 1 < 1 1 1 1 1 1 1 1 1 1 1 1 1 1 1 1 1 < 1 1 1 1 1 1 1 1 1 1 1 1 1 1 1 1 1 1 1 1 1 1 1 1 1 1 1 1 1 1 1 1 1 1 1 1 1 1 1 1 < ",
"1 1 1 1 1 1 1 1 1 1 1 1 1 1 1 1 1 1 1 1 1 1 1 1 1 1 1 1 1 1 1 1 1 1 1 1 1 1 1 1 1 1 1 1 1 1 1 1 1 1 1 1 < 1 1 1 1 1 1 1 1 1 1 1 ",
"1 1 1 1 1 1 1 1 1 1 1 1 1 1 1 1 1 1 1 1 1 1 1 1 1 1 1 1 1 1 1 1 1 1 1 1 1 1 1 1 1 1 1 1 1 1 1 1 1 < 1 1 1 1 1 1 1 1 1 1 1 1 1 1 ",
"1 1 1 1 1 1 1 1 1 1 1 1 1 1 1 1 1 < 1 1 1 1 1 1 1 1 1 1 1 1 1 1 1 1 1 1 1 1 1 1 1 1 1 1 1 1 1 1 1 1 1 1 1 1 1 1 1 1 1 1 1 1 1 1 ",
"*.1 1 1 1 1 1 1 1 1 1 1 1 1 1 1 1 1 1 1 1 1 1 1 1 1 1 1 1 1 1 1 1 1 1 1 1 1 1 1 1 1 1 1 1 1 1 1 1 1 1 1 1 1 1 1 1 1 1 1 1 1 1 *.",
"*.1 1 1 1 1 1 1 1 1 1 1 1 1 < 1 1 1 1 1 1 1 1 1 1 1 < 1 1 1 1 1 1 1 1 1 < 1 1 1 1 1 1 1 1 1 1 1 1 1 1 1 1 1 1 1 1 1 1 1 1 1 1 *.",
"*.*.< 1 1 1 1 1 1 1 1 < 1 1 1 1 1 1 1 1 1 1 1 1 1 1 1 1 1 1 1 1 1 1 1 1 1 1 1 1 1 1 1 1 1 1 1 1 1 1 1 1 1 1 1 < 1 1 1 1 1 , *.*.",
"*.*.7 < 1 1 1 1 1 1 1 1 1 1 1 1 1 1 1 1 1 1 1 1 1 1 1 1 1 1 1 1 1 1 < 1 1 1 1 1 1 1 1 1 1 1 1 1 1 1 1 1 1 1 1 1 1 1 1 1 < 4 *.*.",
"*.*.*.< < 1 1 1 1 1 1 1 1 1 1 1 1 1 1 1 1 1 1 1 1 1 1 1 1 1 1 1 1 1 1 1 1 1 1 1 1 1 1 1 1 1 1 1 1 1 1 1 1 1 1 1 1 1 1 < 1 *.*.*.",
"*.*.*.*.2 < 1 1 1 1 1 1 1 1 1 1 1 1 1 1 1 1 1 1 1 1 1 1 1 1 1 1 1 1 1 1 1 1 1 1 1 1 1 1 1 1 1 1 1 1 1 1 1 1 1 2 1 1 < 2 *.*.*.*.",
"*.*.*.*.*.: > : > > > > > > : : < ; < > > > > > > > : : > > : > > > > > : > : : > > : : : > > > > : : : > : : > : : : *.*.*.*.*.",
"*.*.*.*.*.*.1 > > > > > > > > > ; ; > > > > > > > > > > > ; > > > > > > > > > > ; > > > > > > ; > > > > > > > > > 1 *.*.*.*.*.*.",
"*.*.*.*.*.*.*.*.1 > > ; > > > > > ; ; > > > > > > > > > > > > > > > > > > > > > > > > > > > > > > > > > > > > 1 *.*.*.*.*.*.*.*.",
"*.*.*.*.*.*.*.*.*.*.1 : > > > > > > > > > > > ; > > > > > ; > > > > ; > > > > > > ; > > > > > > > > > > : 1 *.*.*.*.*.*.*.*.*.*."
};
