/* XPM */
static char *_f7c3bfbaf1e4d09f96dd626cf7920a6[] = {
/* columns rows colors chars-per-pixel */
"32 32 236 2 ",
"   c #0B203A",
".  c #0F243D",
"X  c #122741",
"o  c #172B43",
"O  c #182D46",
"+  c #1A2E47",
"@  c #1C2F46",
"#  c #1D2F47",
"$  c #1B2F48",
"%  c #1B2F49",
"&  c #1D3047",
"*  c #1B3049",
"=  c #1C3048",
"-  c #1C3049",
";  c #1D3049",
":  c #1E3149",
">  c #1F3249",
",  c #1C304A",
"<  c #1C314A",
"1  c #1D314A",
"2  c #1D314B",
"3  c #1E314B",
"4  c #1D324A",
"5  c #1E324B",
"6  c #1F324B",
"7  c #1F334C",
"8  c #20334B",
"9  c #21344B",
"0  c #20334C",
"q  c #20334D",
"w  c #21344C",
"e  c #20344D",
"r  c #21344D",
"t  c #23354D",
"y  c #23364D",
"u  c #21354E",
"i  c #22354E",
"p  c #22364E",
"a  c #23364F",
"s  c #24354C",
"d  c #26374C",
"f  c #25374F",
"g  c #25384E",
"h  c #28384B",
"j  c #28384C",
"k  c #28394D",
"l  c #233750",
"z  c #243750",
"x  c #243850",
"c  c #253850",
"v  c #253851",
"b  c #253951",
"n  c #263951",
"m  c #263952",
"M  c #263A52",
"N  c #273A52",
"B  c #273A53",
"V  c #273B53",
"C  c #283A52",
"Z  c #283A53",
"A  c #283B53",
"S  c #283C53",
"D  c #2A3C52",
"F  c #293C54",
"G  c #293D54",
"H  c #2A3C54",
"J  c #2A3D54",
"K  c #2A3D55",
"L  c #2B3E56",
"P  c #2B3F56",
"I  c #2C3E55",
"U  c #2C3F57",
"Y  c #2D3F57",
"T  c #2F4055",
"R  c #2C4057",
"E  c #2D4057",
"W  c #2C4058",
"Q  c #2D4058",
"!  c #2D4158",
"~  c #2E4259",
"^  c #2F435A",
"/  c #304054",
"(  c #304156",
")  c #304258",
"_  c #314359",
"`  c #334358",
"'  c #30435A",
"]  c #31435A",
"[  c #30435B",
"{  c #30445A",
"}  c #30445B",
"|  c #30455B",
" . c #33445A",
".. c #35465B",
"X. c #31455C",
"o. c #36475D",
"O. c #37485E",
"+. c #3B4B5F",
"@. c #3B4B60",
"#. c #3C4C61",
"$. c #3D4D61",
"%. c #3E4F65",
"&. c #404F62",
"*. c #415064",
"=. c #415165",
"-. c #415267",
";. c #455467",
":. c #435368",
">. c #445468",
",. c #46576B",
"<. c #485668",
"1. c #4B586A",
"2. c #505E6E",
"3. c #505E70",
"4. c #516073",
"5. c #546273",
"6. c #536274",
"7. c #546275",
"8. c #556375",
"9. c #546376",
"0. c #576577",
"q. c #596574",
"w. c #5C6877",
"e. c #5A6879",
"r. c #5B687A",
"t. c #606C7B",
"y. c #616E7E",
"u. c #65707E",
"i. c #616F81",
"p. c #667281",
"a. c #6F7885",
"s. c #6B7889",
"d. c #6E7A89",
"f. c #717B88",
"g. c #747E8A",
"h. c #76808C",
"j. c #77828F",
"k. c #778290",
"l. c #788391",
"z. c #7A8592",
"x. c #7D8793",
"c. c #7E8A98",
"v. c #818A95",
"b. c #838C96",
"n. c #818C9A",
"m. c #838D9A",
"M. c #868E99",
"N. c #878F9A",
"B. c #8B949F",
"V. c #8D959F",
"C. c #8893A0",
"Z. c #8C96A2",
"A. c #8D97A4",
"S. c #929AA4",
"D. c #949BA5",
"F. c #959DA8",
"G. c #9AA1A9",
"H. c #9BA1A9",
"J. c #9DA3AC",
"K. c #9EA4AD",
"L. c #A1A7AF",
"P. c #A0A7B0",
"I. c #A6ACB3",
"U. c #A3ACB6",
"Y. c #A8AEB5",
"T. c #A9AEB5",
"R. c #A6ADB8",
"E. c #A9B1B9",
"W. c #AAB0B8",
"Q. c #ADB3BA",
"!. c #ABB3BC",
"~. c #B5BAC1",
"^. c #B7BDC4",
"/. c #B8BEC4",
"(. c #B8BEC5",
"). c #BABFC4",
"_. c #BABFC5",
"`. c #BBC0C7",
"'. c #BBC1C8",
"]. c #BDC2C9",
"[. c #C0C4C9",
"{. c #C2C6CB",
"}. c #C3C7CC",
"|. c #C5C9CE",
" X c #C7CACF",
".X c #C7CBD0",
"XX c #CACED2",
"oX c #CDD1D4",
"OX c #CED1D5",
"+X c #CCD0D6",
"@X c #CCD1D6",
"#X c #D1D4D8",
"$X c #D2D5D8",
"%X c #D5D7DA",
"&X c #DCDEE2",
"*X c #DDDFE2",
"=X c #DCDFE3",
"-X c #DFE0E2",
";X c #DFE1E3",
":X c #DFE1E4",
">X c #E0E2E4",
",X c #E2E5E7",
"<X c #E6E7E8",
"1X c #E6E8EB",
"2X c #E9EAEC",
"3X c #E9EBEC",
"4X c #EBEBED",
"5X c #EAECED",
"6X c #EBECEE",
"7X c #EEEFF1",
"8X c #EFF0F0",
"9X c #EFF0F1",
"0X c #F0F1F2",
"qX c #F1F2F2",
"wX c #F3F3F3",
"eX c #F2F3F4",
"rX c #F4F4F4",
"tX c #F5F6F6",
"yX c #F5F6F7",
"uX c #F6F6F7",
"iX c #F6F7F7",
"pX c #F7F7F8",
"aX c #F8F9FA",
"sX c #F9F9FA",
"dX c #F9FAFB",
"fX c #FAFBFB",
"gX c #FBFBFC",
"hX c gray99",
"jX c #FCFCFD",
"kX c #FCFDFD",
"lX c #FDFEFE",
"zX c #FEFEFE",
"xX c #FFFEFE",
"cX c #FEFFFF",
"vX c gray100",
"bX c None",
/* pixels */
"bXbXbXbXE ^ ^ | | [ | [ | [ | [ | [ | [ | [ | [ | [ ^ U bXbXbXbX",
"bXbXbX^ { { | [ [ ' [ | [ | [ | [ | [ | [ | [ | [ | | [ ^ bXbXbX",
"bXbX' | ^ } [ [ ^ ^ ^ ' ^ ^ ^ ^ ^ ^ ^ ^ ^ ^ ^ ^ [ | | | { ' bXbX",
"bX{ ^ { ^ ^ F F A A A A A A A A A A A A A A A A F F U ' | ^ ' bX",
"^ | { U F A A A A A A A A A A A A A A A A A A A A A A F ^ | [ ^ ",
"^ | F A V A A A A A A A A A A A A A A A A A A A A A A A V F ' ^ ",
"[ U A A A A A A A A A A A A A A A A A A A A A A A A A A A A U [ ",
"^ A A A A A A A A A A A A A A A A A A A A A A A A A A A A B F ' ",
"F A A A A A A A A A A A A A A A A A A A A V A A A V c u q 6 c U ",
"F F A A A A A A A A A A A A A A A A A g u u A A V A ( -.0.l.&.c ",
"A A A A A A A A A A A V V u 7 % @ 6 E ' -.8.s E j._.*XyXvX<X/ c ",
"A A A A A A A A A A A A { >.e.k.D.S.g.*XpX%X<.y.&.@.+XvXvXf.% A ",
"B u 6 % % , V A c O.z._.4XvXvXvXvXvXM.eXvXQ.).vX7XD.7XvX$Xy V A ",
"' e.k.Z.P.v.y V V o.;.@.7.m._.vXvXvXG.fXvX|.yXvXvX2XvXvXu., A A ",
"' d.^.yXvXvXG.o + c.wXoXM.  -.vXvX9XK.vXvXfXvXvXvXvXvX|.6 V A A ",
"V 6 X A.vXvX>Xa.. U.vXvX[.& C.vXvX;XT.vXvXvXvXvXvXvXvXq.6 A A A ",
"A A 6 !.vXvXoXyXw.'.vXvX[.4XvXvXvXL._.vXvXvX4XvXvXvX_.@ A A A A ",
"A V l @XvXvX XvX0X7XvXvX~.XXW.V.p.( &XvXvX,XI.vXvXfX1.q A A A A ",
"A c { 1XvXyX#XvXvXvXvXvX2.% , @ O %.gXvXvXg.W.vX4Xb.& A A A A A ",
"A u >.fXvX4Xz.fXvXvXvXwX' c A A u 9.;X[.V.u 9.2...q V A A A A A ",
"A 7 i.vXvX*X@ s.fXvX0XT.8 A A A V U U 8 , A q q V A A A A A A A ",
"A % n.vXvX X@ 8 3.5.#.y A A A A A V c V A A A A V A A A A A A A ",
"A , R.vX>Xt.u A q q c V A A A A A A A A A A A A V A A A A A A A ",
"A c '.J.U 6 A A A A A V A A A A A A A A A A A A A A A A A A A A ",
"A F #.6 y A A A A A A A A A A A A A A A A A A A A A A A A A A A ",
"A F c A F A A A A A A A A A A A A A A A A A A A A A A A A A A A ",
"A A A A A A A A A A A A A A A A A A A A A A A A A A A A A A A A ",
"F A A A A A A A A A A A A A A A A A A A A A A A A A A A A A A A ",
"bXU A A A A A A A A A A A A A A A A A A A A A A A A A A A V A bX",
"bXbXA A A A A A A A A A A A A A A A A A A A A A A A A A V A bXbX",
"bXbXbXy h j k h j j j j j j j j j j j j j j j j k h k h y bXbXbX",
"bXbXbXbXA k h h h h h h h h h h h h h h h h h h h h k D bXbXbXbX"
};
