/* XPM */
static char *_96e5be1e6b245908a6839e0971ce11b[] = {
/* columns rows colors chars-per-pixel */
"16 16 115 2 ",
"   c #172C46",
".  c #192D46",
"X  c #1A2E48",
"o  c #1A2F48",
"O  c #1B2F49",
"+  c #1C304A",
"@  c #1D314A",
"#  c #1D314B",
"$  c #1F334A",
"%  c #1E324B",
"&  c #1F334C",
"*  c #20344D",
"=  c #21344D",
"-  c #22364F",
";  c #23364F",
":  c #23374F",
">  c #26374C",
",  c #28384C",
"<  c #243850",
"1  c #253850",
"2  c #253851",
"3  c #263952",
"4  c #273A52",
"5  c #273B52",
"6  c #273B53",
"7  c #293B52",
"8  c #283A53",
"9  c #283B53",
"0  c #293B53",
"q  c #293C53",
"w  c #293B54",
"e  c #293C54",
"r  c #2B3E56",
"t  c #2C3E56",
"y  c #2D3F56",
"u  c #2C3F57",
"i  c #2D3F57",
"p  c #2B4057",
"a  c #2C4057",
"s  c #2E4057",
"d  c #2D4058",
"f  c #2D4158",
"g  c #2F425A",
"h  c #2E435A",
"j  c #2F435A",
"k  c #31435A",
"l  c #32435A",
"z  c #30455B",
"x  c #32445B",
"c  c #31455C",
"v  c #32455C",
"b  c #31465C",
"n  c #35475C",
"m  c #35475E",
"M  c #394A60",
"N  c #3A4B61",
"B  c #415165",
"V  c #435266",
"C  c #45566A",
"Z  c #47566A",
"A  c #4F5E71",
"S  c #506072",
"D  c #526073",
"F  c #556375",
"G  c #596779",
"H  c #5C697B",
"J  c #606C7D",
"K  c #606E7F",
"L  c #677383",
"P  c #6A7685",
"I  c #6C7887",
"U  c #6D7987",
"Y  c #6A7788",
"T  c #707C8B",
"R  c #76818F",
"E  c #78828F",
"W  c #7E8895",
"Q  c #86909C",
"!  c #8A949F",
"~  c #8F97A3",
"^  c #8F98A4",
"/  c #97A0AC",
"(  c #9AA3AD",
")  c #9EA6B0",
"_  c #A2A9B3",
"`  c #B1B8BF",
"'  c #B7BEC6",
"]  c #C0C5CB",
"[  c #C0C6CD",
"{  c #C3C7CC",
"}  c #C6CACF",
"|  c #C8CCD1",
" . c #CFD2D6",
".. c #D4D6DA",
"X. c #D4D7DB",
"o. c #D7D9DC",
"O. c #D8DBDE",
"+. c #DBDDE1",
"@. c #E2E4E7",
"#. c #E3E5E7",
"$. c #E3E5E8",
"%. c #E3E6E8",
"&. c #E5E6E8",
"*. c #E4E6E9",
"=. c #E9EAEC",
"-. c #EDEFF0",
";. c #F1F2F3",
":. c #F6F7F7",
">. c #F9FAFA",
",. c gray98",
"<. c #FAFBFB",
"1. c #FCFCFB",
"2. c #FEFDFC",
"3. c gray100",
"4. c None",
/* pixels */
"4.4.f b z z z z z z z z z a 4.4.",
"4.b f u u u u u u u u u u x b 4.",
"f u e 9 4 4 4 9 4 4 4 4 9 9 i f ",
"f 9 9 9 9 9 9 q 9 9 9 9 3 ; = f ",
"e 9 9 9 9 4 ; # # # + ; l M D x ",
"2 & # 4 4 x C D G T ^ C P *. .9 ",
"M K H ; i I ) #.:.O.-.#.O.,.L X ",
"m ( 3.E S $.K ' 2...3.3.3.{ # 4 ",
"  Y 3.#.| 3.} ] ~ #.,.;.3.F # 9 ",
"X / ,.X.3.2.B . m +.! Q R = 9 9 ",
"# [ =.B _ W > 4 u u ; # + 9 9 9 ",
"u ` I # X X 9 9 9 ; 9 9 9 9 9 9 ",
"e u # 9 9 9 9 9 9 9 9 9 9 9 9 9 ",
"q 4 9 9 9 9 9 9 9 9 9 9 9 9 4 9 ",
"4.q 4 9 9 9 9 9 9 9 9 9 9 9 9 4.",
"4.4.> , , , , , , , , , , ; 4.4."
};
